# xmcd CD database file
#
# Track frame offsets:
#	150
#	24682
#	50039
#	74183
#	96358
#	108359
#	133811
#	158953
#	187465
#	213796
#	248111
#	268088
#
# Disc length: 3708 seconds
#
# Revision: 1
# Processed by: cddbd v1.5.1PL2 Copyright (c) Steve Scherf et al.
# Submitted via: CDex 1.51
#
DISCID=c20e7a0c
DTITLE=Micha³ Urbaniak - Sax, Love and Cinema
DYEAR=2001
DGENRE=Jazz
TTITLE0=Love Away
TTITLE1=Moonlight
TTITLE2=Horny
TTITLE3=Sunshine
TTITLE4=Ptak
TTITLE5=I Just Love You
TTITLE6=Moon Love
TTITLE7=Bossonoga
TTITLE8=Satin Lady
TTITLE9=Wonder Love
TTITLE10=Blu Ave
TTITLE11=Together Again
EXTD=YEAR: 2001
EXTT0=
EXTT1=
EXTT2=
EXTT3=
EXTT4=
EXTT5=
EXTT6=
EXTT7=
EXTT8=
EXTT9=
EXTT10=
EXTT11=
PLAYORDER=
